<svg
  xmlns="http://www.w3.org/2000/svg"
  width="24"
  height="24"
  viewBox="0 0 18 15"
  style="fill: none;stroke: #2c323f;"
><path
    xmlns="http://www.w3.org/2000/svg"
    d="M9.00771 0.500013L9.00772 0.500012L9.00818 0.500003C9.01487 0.499853 9.04121 0.499261 9.09973 0.539787L17.4284 7.34735L17.4283 7.34749L17.4389 7.35568C17.4468 7.36185 17.4845 7.40423 17.4967 7.50045C17.5022 7.54334 17.5003 7.58379 17.4939 7.61597C17.4874 7.64922 17.4785 7.66175 17.4799 7.65976L17.4798 7.66003C17.4737 7.66867 17.4495 7.69219 17.3929 7.69683C17.335 7.70157 17.2925 7.68172 17.274 7.66471L17.2632 7.65477L17.2518 7.64548L9.31503 1.16099L8.99868 0.902524L8.68233 1.16099L0.745525 7.64548L0.734221 7.65471L0.723475 7.66459C0.706153 7.68052 0.667477 7.69907 0.611153 7.69413C0.556187 7.6893 0.522676 7.66552 0.508269 7.64716C0.507765 7.64592 0.489798 7.6134 0.50752 7.52553C0.524894 7.43939 0.56562 7.36407 0.598067 7.32357L8.89008 0.545958C8.95425 0.505697 8.99325 0.500274 9.00771 0.500013ZM2.9133 7.97121L3.23034 7.71133V13.6364V14.1364H3.73034H6.58403H7.08403V13.6364V11.591C7.08403 10.4775 7.96478 9.59101 8.99868 9.59101C10.0326 9.59101 10.9133 10.4775 10.9133 11.591V13.6364V14.1364H11.4133H14.267H14.767V13.6364V7.71114L15.0841 7.97102V14.3179C15.084 14.4353 14.9966 14.5 14.9255 14.5H10.7548C10.6834 14.5 10.5963 14.4352 10.5963 14.3182V11.591C10.5963 10.69 9.91043 9.95457 8.99868 9.95457C8.08684 9.95457 7.40106 10.6901 7.40106 11.591V14.3182C7.40106 14.4351 7.31383 14.5 7.24255 14.5H3.07182C3.00027 14.5 2.9133 14.4352 2.9133 14.3184V7.97121Z"
  /></svg>
