<svg
  width="40"
  height="48"
  viewBox="0 0 40 48"
  fill="none"
  xmlns="http://www.w3.org/2000/svg"
>
<path
    d="M0 8C0 3.58172 3.58172 0 8 0H20C31.0457 0 40 8.9543 40 20V40C40 44.4183 36.4183 48 32 48H8C3.58172 48 0 44.4183 0 40V8Z"
    fill="#3874B9"
  />
<path
    d="M9 28.1094V20.1094H12.1563C12.763 20.1094 13.2799 20.2253 13.707 20.457C14.1341 20.6862 14.4596 21.0052 14.6836 21.4141C14.9102 21.8203 15.0234 22.2891 15.0234 22.8203C15.0234 23.3516 14.9089 23.8203 14.6797 24.2266C14.4505 24.6328 14.1185 24.9492 13.6836 25.1758C13.2513 25.4023 12.7279 25.5156 12.1133 25.5156H10.1016V24.1602H11.8398C12.1654 24.1602 12.4336 24.1042 12.6445 23.9922C12.8581 23.8776 13.0169 23.7201 13.1211 23.5195C13.2279 23.3164 13.2812 23.0833 13.2812 22.8203C13.2812 22.5547 13.2279 22.3229 13.1211 22.125C13.0169 21.9245 12.8581 21.7695 12.6445 21.6602C12.431 21.5482 12.1602 21.4922 11.832 21.4922H10.6914V28.1094H9Z"
    fill="white"
  />
<path
    d="M22.8135 20.1094V28.1094H21.3525L17.8721 23.0742H17.8135V28.1094H16.1221V20.1094H17.6064L21.0596 25.1406H21.1299V20.1094H22.8135Z"
    fill="white"
  />
<path
    d="M29.5156 22.6953C29.4609 22.5052 29.3841 22.3372 29.2852 22.1914C29.1862 22.043 29.0651 21.918 28.9219 21.8164C28.7813 21.7122 28.6198 21.6328 28.4375 21.5781C28.2578 21.5234 28.0586 21.4961 27.8398 21.4961C27.431 21.4961 27.0716 21.5977 26.7617 21.8008C26.4544 22.0039 26.2148 22.2995 26.043 22.6875C25.8711 23.0729 25.7852 23.5443 25.7852 24.1016C25.7852 24.6589 25.8698 25.1328 26.0391 25.5234C26.2083 25.9141 26.4479 26.2122 26.7578 26.418C27.0677 26.6211 27.4336 26.7227 27.8555 26.7227C28.2383 26.7227 28.5651 26.6549 28.8359 26.5195C29.1094 26.3815 29.3177 26.1875 29.4609 25.9375C29.6068 25.6875 29.6797 25.3919 29.6797 25.0508L30.0234 25.1016H27.9609V23.8281H31.3086V24.8359C31.3086 25.5391 31.1602 26.1432 30.8633 26.6484C30.5664 27.151 30.1576 27.5391 29.6367 27.8125C29.1159 28.0833 28.5195 28.2188 27.8477 28.2188C27.0977 28.2188 26.4388 28.0534 25.8711 27.7227C25.3034 27.3893 24.8607 26.9167 24.543 26.3047C24.2279 25.6901 24.0703 24.9609 24.0703 24.1172C24.0703 23.4688 24.1641 22.8906 24.3516 22.3828C24.5417 21.8724 24.8073 21.4401 25.1484 21.0859C25.4896 20.7318 25.8867 20.4622 26.3398 20.2773C26.793 20.0924 27.2839 20 27.8125 20C28.2656 20 28.6875 20.0664 29.0781 20.1992C29.4688 20.3294 29.8151 20.5143 30.1172 20.7539C30.4219 20.9935 30.6706 21.2786 30.8633 21.6094C31.056 21.9375 31.1797 22.2995 31.2344 22.6953H29.5156Z"
    fill="white"
  />
</svg>
