<svg
  xmlns="http://www.w3.org/2000/svg"
  width="36"
  height="36"
  viewBox="0 0 426 422"
>
  <path
    id="Subtraction_5"
    data-name="Subtraction 5"
    d="M346,422H80a80.59,80.59,0,0,1-16.123-1.625,79.565,79.565,0,0,1-28.606-12.037,80.232,80.232,0,0,1-28.984-35.2,79.6,79.6,0,0,1-4.662-15.017A80.592,80.592,0,0,1,0,342V80A80.592,80.592,0,0,1,1.625,63.877,79.565,79.565,0,0,1,13.663,35.271a80.232,80.232,0,0,1,35.2-28.984A79.6,79.6,0,0,1,63.877,1.625,80.592,80.592,0,0,1,80,0H346a80.592,80.592,0,0,1,16.123,1.625,79.565,79.565,0,0,1,28.606,12.037,80.233,80.233,0,0,1,28.984,35.2,79.594,79.594,0,0,1,4.662,15.017A80.59,80.59,0,0,1,426,80V342a80.59,80.59,0,0,1-1.625,16.123,79.564,79.564,0,0,1-12.037,28.606,80.232,80.232,0,0,1-35.2,28.984,79.594,79.594,0,0,1-15.017,4.662A80.59,80.59,0,0,1,346,422ZM116.963,100.818V242.509a85.818,85.818,0,0,0,2.823,22.372,71.011,71.011,0,0,0,8.47,19.39A73.582,73.582,0,0,0,141.812,300.2,82.053,82.053,0,0,0,159.9,312.182a94.42,94.42,0,0,0,22.053,7.43,131.7,131.7,0,0,0,50.843,0,94.463,94.463,0,0,0,22.026-7.43A82.049,82.049,0,0,0,272.9,300.2a73.608,73.608,0,0,0,13.557-15.927,70.7,70.7,0,0,0,8.549-19.39,85.063,85.063,0,0,0,2.85-22.372V100.818H251.729V238.567a48.617,48.617,0,0,1-1.385,11.772,40.94,40.94,0,0,1-4.155,10.388,38.727,38.727,0,0,1-6.578,8.656,40.557,40.557,0,0,1-8.87,6.578,41.921,41.921,0,0,1-10.786,4.155,57.254,57.254,0,0,1-25.035,0,42.8,42.8,0,0,1-10.84-4.155,41.152,41.152,0,0,1-8.9-6.578,39.593,39.593,0,0,1-6.658-8.656,41.413,41.413,0,0,1-4.076-10.388,49.516,49.516,0,0,1-1.359-11.772V100.818ZM308.545,294.386a15.355,15.355,0,0,0,2.432,8.431,14.449,14.449,0,0,0,6.5,5.115,25.732,25.732,0,0,0,9.818,1.727,24.953,24.953,0,0,0,9.7-1.7,13.913,13.913,0,0,0,6.182-4.841,12.934,12.934,0,0,0,2.182-7.409,12.425,12.425,0,0,0-1.069-5.16,11.657,11.657,0,0,0-2.886-3.91A17.046,17.046,0,0,0,337,283.841a29.528,29.528,0,0,0-5.591-1.818l-4.181-1a25.033,25.033,0,0,1-2.864-.818,12.333,12.333,0,0,1-2.363-1.16,5.471,5.471,0,0,1-1.615-1.613,3.851,3.851,0,0,1-.522-2.183,4.456,4.456,0,0,1,.863-2.682,5.764,5.764,0,0,1,2.546-1.841,10.771,10.771,0,0,1,4.068-.682,9.319,9.319,0,0,1,5.614,1.523,5.775,5.775,0,0,1,2.34,4.273h9.432a13.111,13.111,0,0,0-2.227-7.318,14.373,14.373,0,0,0-6.045-4.932,21.609,21.609,0,0,0-9.046-1.773,22.324,22.324,0,0,0-9.091,1.773,15.246,15.246,0,0,0-6.3,4.932,12.26,12.26,0,0,0-2.25,7.386,10.434,10.434,0,0,0,3.386,8.2,21.358,21.358,0,0,0,9.3,4.478l5.068,1.273a27.385,27.385,0,0,1,4.3,1.364,7.091,7.091,0,0,1,2.682,1.818,3.889,3.889,0,0,1,.931,2.637,4.694,4.694,0,0,1-1.022,2.976,6.69,6.69,0,0,1-2.886,2.023,11.844,11.844,0,0,1-4.341.727,12.771,12.771,0,0,1-4.568-.773,7.484,7.484,0,0,1-3.2-2.341,7.173,7.173,0,0,1-1.341-3.909Z"
    fill="#000"
  />
</svg>
