<svg xmlns="http://www.w3.org/2000/svg" viewBox="0 0 24 24">
        <path
    d="M22.357 2.65545H8.42212C8.49805 2.95897 8.52329 3.31294 8.52329 3.64174C8.52329 4.04643 8.4728 4.42569 8.37163 4.80511H21.2443V15.7558L4.37552 15.7556V8.49716C4.1227 8.54764 3.89511 8.54764 3.64209 8.54764C3.13623 8.54764 2.6558 8.4717 2.20065 8.32005V18.4361C2.20065 19.0177 2.68107 19.4983 3.26288 19.4983H10.6981V21.4456H9.78755C8.67485 21.4456 7.76429 22.3562 7.76429 23.4689C7.76429 23.7724 8.01712 24 8.29539 24H17.3493C17.6528 24 17.8804 23.7472 17.8804 23.4689C17.8804 22.3562 16.9698 21.4456 15.8571 21.4456H14.9465V19.4983H22.3567C22.9383 19.4983 23.4189 19.0179 23.4189 18.4361L23.4191 3.71729C23.4191 3.13547 22.9385 2.65506 22.3569 2.65506L22.357 2.65545ZM12.8225 18.3862C12.4178 18.3862 12.0891 18.0575 12.0891 17.6528C12.0891 17.2481 12.4178 16.8941 12.8225 16.8941C13.2272 16.8941 13.5812 17.2229 13.5812 17.6528C13.5559 18.0575 13.2272 18.3862 12.8225 18.3862Z"
    fill="white"
  />
        <path
    d="M7.28357 3.64179C7.28357 1.61852 5.63979 0 3.64179 0C1.61852 0 0 1.64378 0 3.64179C0 5.66505 1.64378 7.28357 3.64179 7.28357C5.66505 7.30881 7.28357 5.66499 7.28357 3.64179ZM2.5543 4.95682V2.35201C2.5543 2.14966 2.75664 2.04849 2.93375 2.14966L5.03295 3.4647C5.1846 3.56587 5.1846 3.79345 5.03295 3.86939L2.93375 5.18442C2.75664 5.26036 2.5543 5.15918 2.5543 4.95684V4.95682Z"
    fill="white"
  />
        <path
    d="M8.04241 13.7578H17.602C17.956 13.7578 18.2343 13.4796 18.2343 13.1255C18.2343 12.7715 17.956 12.4933 17.602 12.4933H8.04241C7.68841 12.4933 7.41013 12.7715 7.41013 13.1255C7.41013 13.4796 7.6884 13.7578 8.04241 13.7578Z"
    fill="white"
  />
        <path
    d="M8.04241 10.9253H17.602C17.956 10.9253 18.2343 10.6471 18.2343 10.2931C18.2343 9.93904 17.956 9.66077 17.602 9.66077H8.04241C7.68841 9.66077 7.41013 9.93904 7.41013 10.2931C7.41013 10.6473 7.6884 10.9253 8.04241 10.9253Z"
    fill="white"
  />
        <path
    d="M8.04241 8.09288H17.602C17.956 8.09288 18.2343 7.8146 18.2343 7.46059C18.2343 7.10659 17.956 6.82831 17.602 6.82831H8.04241C7.68841 6.82831 7.41013 7.10658 7.41013 7.46059C7.41013 7.81459 7.6884 8.09288 8.04241 8.09288Z"
    fill="white"
  />
</svg>
