<svg
  xmlns="http://www.w3.org/2000/svg"
  viewBox="0 0 19 19"
  style="fill: none;stroke: #2c323f;"
>
        <path
    d="M7.25177 8.60541C7.17261 8.5975 7.07761 8.5975 6.99052 8.60541C5.10636 8.54208 3.61011 6.99833 3.61011 5.09833C3.61011 3.15875 5.17761 1.58333 7.12511 1.58333C9.06469 1.58333 10.6401 3.15875 10.6401 5.09833C10.6322 6.99833 9.13594 8.54208 7.25177 8.60541Z"
    stroke-opacity="0.8"
    stroke-width="1.5"
    stroke-linecap="round"
    stroke-linejoin="round"
  />
        <path
    opacity="0.4"
    d="M12.9913 3.16667C14.5272 3.16667 15.7622 4.40958 15.7622 5.9375C15.7622 7.43375 14.5747 8.65292 13.0943 8.70833C13.0309 8.70042 12.9597 8.70042 12.8884 8.70833"
    stroke-opacity="0.8"
    stroke-width="1.5"
    stroke-linecap="round"
    stroke-linejoin="round"
  />
        <path
    d="M3.29332 11.5267C1.37749 12.8092 1.37749 14.8992 3.29332 16.1737C5.4704 17.6304 9.04082 17.6304 11.2179 16.1737C13.1337 14.8913 13.1337 12.8013 11.2179 11.5267C9.04874 10.0779 5.47832 10.0779 3.29332 11.5267Z"
    stroke-opacity="0.8"
    stroke-width="1.5"
    stroke-linecap="round"
    stroke-linejoin="round"
  />
        <path
    opacity="0.4"
    d="M14.5193 15.8333C15.0893 15.7146 15.6276 15.485 16.071 15.1446C17.306 14.2183 17.306 12.6904 16.071 11.7642C15.6355 11.4317 15.1051 11.21 14.543 11.0833"
    stroke-opacity="0.8"
    stroke-width="1.5"
    stroke-linecap="round"
    stroke-linejoin="round"
  />
</svg>
